<?xml version="1.0" encoding="UTF-8"?>
<svg version="1.1" xmlns="http://www.w3.org/2000/svg" width="512" height="512">
<path d="M0 0 C1.27017139 -0.00297112 2.54034278 -0.00594224 3.84900421 -0.0090034 C7.36345528 -0.01704065 10.8778859 -0.01886114 14.39234507 -0.01960087 C18.18735015 -0.02145717 21.98234476 -0.02900742 25.77734375 -0.03573608 C34.07099172 -0.04929699 42.36463484 -0.05534073 50.65829206 -0.05974674 C55.84135811 -0.06251316 61.02442231 -0.06675126 66.20748711 -0.07125092 C80.57048837 -0.08344103 94.93348816 -0.09374061 109.29649448 -0.09712601 C110.67443498 -0.09745536 110.67443498 -0.09745536 112.08021265 -0.09779136 C113.00098329 -0.09800964 113.92175393 -0.09822791 114.87042671 -0.09845281 C116.73612249 -0.09889627 118.60181826 -0.09934283 120.46751404 -0.09979248 C121.39295499 -0.10001391 122.31839594 -0.10023534 123.27188056 -0.10046348 C138.25787497 -0.10440913 153.24382069 -0.1218572 168.2297963 -0.145152 C183.63215646 -0.16889989 199.03449223 -0.18132943 214.43687099 -0.18249393 C223.07804355 -0.18340879 231.71915267 -0.18911353 240.36030769 -0.20731354 C247.72031095 -0.22276103 255.08023115 -0.22780771 262.44024754 -0.21957543 C266.19086171 -0.21568522 269.94130886 -0.21651815 273.69190216 -0.23063278 C277.77022483 -0.24583945 281.84817591 -0.23745709 285.92651367 -0.22705078 C287.67914555 -0.23913539 287.67914555 -0.23913539 289.46718413 -0.25146413 C306.11029406 -0.15269094 320.20856224 4.09711924 333.40769958 14.14044189 C334.92363708 15.22325439 334.92363708 15.22325439 336.47019958 16.32794189 C349.42905761 27.5981102 356.29416473 44.65613678 357.68123126 61.4527626 C357.7895085 64.83030417 357.80808439 68.19532505 357.78865051 71.57452393 C357.79333048 72.85067629 357.79801046 74.12682865 357.80283225 75.4416523 C357.81521925 78.94036676 357.80922891 82.43883202 357.79987359 85.93754673 C357.79303228 89.72766775 357.80358928 93.51774854 357.81181335 97.30786133 C357.82509913 104.71553354 357.82229607 112.12311416 357.81357543 119.53078985 C357.80677889 125.5553242 357.80589065 131.57983303 357.80914688 137.60437012 C357.80960658 138.46434384 357.81006628 139.32431757 357.81053991 140.21035111 C357.81149916 141.9577934 357.8124718 143.70523569 357.81345768 145.45267797 C357.82199647 161.80870612 357.81220122 178.1646837 357.79605658 194.52070355 C357.78265478 208.53134477 357.7849833 222.5419114 357.79881287 236.55255127 C357.81489544 252.85314853 357.82117264 269.15370156 357.81197608 285.45430565 C357.81102051 287.19504165 357.81007739 288.93577766 357.80914688 290.67651367 C357.80868405 291.53281628 357.80822123 292.38911888 357.80774438 293.27137005 C357.80516251 299.28325985 357.80950809 305.29512141 357.81658554 311.30700684 C357.82503056 318.64123435 357.82265765 325.97536563 357.80674331 333.30958223 C357.79890076 337.04605938 357.79569969 340.78237655 357.80569077 344.51885223 C357.81638906 348.58149189 357.80354919 352.6437334 357.78865051 356.70635986 C357.79534268 357.87000628 357.80203484 359.03365269 357.8089298 360.23256111 C357.73008115 371.38028857 356.04377162 382.4791724 350.72019958 392.39044189 C350.36989685 393.0595459 350.01959412 393.7286499 349.65867615 394.41802979 C341.30145337 409.9185457 328.02030481 420.5691416 311.22019958 425.89044189 C303.11563801 428.2652027 295.19949943 428.28701931 286.81539917 428.28088379 C285.54522778 428.28385491 284.27505639 428.28682603 282.96639496 428.28988719 C279.45194389 428.29792444 275.93751327 428.29974493 272.4230541 428.30048466 C268.62804902 428.30234096 264.83305441 428.30989121 261.03805542 428.31661987 C252.74440745 428.33018078 244.45076433 428.33622452 236.15710711 428.34063053 C230.97404106 428.34339695 225.79097686 428.34763505 220.60791206 428.3521347 C206.2449108 428.36432482 191.88191101 428.3746244 177.51890469 428.3780098 C176.14096419 428.37833915 176.14096419 428.37833915 174.73518652 428.37867515 C173.35403056 428.37900256 173.35403056 428.37900256 171.94497246 428.3793366 C170.07927668 428.37978005 168.21358091 428.38022662 166.34788513 428.38067627 C164.9597237 428.38100841 164.9597237 428.38100841 163.54351861 428.38134727 C148.5575242 428.38529292 133.57157848 428.40274099 118.58560287 428.42603579 C103.18324271 428.44978368 87.78090694 428.46221322 72.37852818 428.46337771 C63.73735562 428.46429258 55.0962465 428.46999732 46.45509148 428.48819733 C39.09508822 428.50364482 31.73516802 428.5086915 24.37515163 428.50045922 C20.62453746 428.49656901 16.87409031 428.49740194 13.12349701 428.51151657 C9.04517433 428.52672324 4.96722326 428.51834088 0.8888855 428.50793457 C-0.86374638 428.52001918 -0.86374638 428.52001918 -2.65178496 428.53234792 C-13.81422556 428.46610129 -24.91733682 426.78194068 -34.84230042 421.45294189 C-35.51067932 421.10408936 -36.17905823 420.75523682 -36.86769104 420.39581299 C-52.61284337 411.92613805 -63.02112358 398.88487955 -68.40480042 381.82794189 C-70.72475989 373.77135536 -70.73883382 365.8721063 -70.73274231 357.54814148 C-70.73571343 356.27797009 -70.73868455 355.0077987 -70.74174571 353.69913727 C-70.74978296 350.1846862 -70.75160345 346.67025558 -70.75234318 343.15579641 C-70.75419948 339.36079133 -70.76174973 335.56579672 -70.76847839 331.77079773 C-70.7820393 323.47714976 -70.78808304 315.18350664 -70.79248905 306.88984942 C-70.79525547 301.70678337 -70.79949357 296.52371917 -70.80399323 291.34065437 C-70.81618334 276.97765311 -70.82648292 262.61465332 -70.82986832 248.251647 C-70.83008788 247.33302 -70.83030745 246.41439301 -70.83053367 245.46792883 C-70.83075195 244.54715819 -70.83097022 243.62638755 -70.83119512 242.67771477 C-70.83163858 240.81201899 -70.83208514 238.94632322 -70.83253479 237.08062744 C-70.83275622 236.15518649 -70.83297765 235.22974554 -70.83320579 234.27626092 C-70.83715144 219.29026651 -70.85459951 204.30432079 -70.87789431 189.31834518 C-70.9016422 173.91598502 -70.91407174 158.51364925 -70.91523623 143.11127049 C-70.9161511 134.47009793 -70.92185584 125.82898881 -70.94005585 117.18783379 C-70.95550334 109.82783053 -70.96055002 102.46791033 -70.95231774 95.10789394 C-70.94842753 91.35727977 -70.94926046 87.60683262 -70.96337509 83.85623932 C-70.97858176 79.77791664 -70.9701994 75.69996557 -70.95979309 71.62162781 C-70.9678495 70.45320656 -70.9759059 69.28478531 -70.98420644 68.08095735 C-70.88552865 51.45392309 -66.64875614 37.31945008 -56.59230042 24.14044189 C-55.82917542 23.10919189 -55.06605042 22.07794189 -54.27980042 21.01544189 C-39.36005111 5.05477985 -21.11469589 -0.01545181 0 0 Z M79.40769958 111.14044189 C78.1334613 112.29479736 78.1334613 112.29479736 76.83348083 113.47247314 C61.58378468 127.92815755 49.54218682 149.65534167 48.23069763 171.0244751 C47.85336963 190.52376405 48.89938723 206.32771779 57.40769958 224.14044189 C57.84855896 225.06341064 58.28941833 225.98637939 58.74363708 226.93731689 C69.83596239 248.63169898 90.50881571 265.76718023 113.60716248 273.37579346 C137.8500789 280.71449259 162.50934143 279.07792582 185.40769958 268.14044189 C186.33066833 267.69958252 187.25363708 267.25872314 188.20457458 266.80450439 C209.16236967 256.08879561 226.56880523 236.01991 233.98973083 213.60919189 C242.20926365 186.90852656 239.82412342 160.34984233 227.15769958 135.51544189 C223.57813401 129.09077884 219.33340611 123.58549804 214.40769958 118.14044189 C213.24947693 116.85846924 213.24947693 116.85846924 212.06785583 115.55059814 C193.6762537 96.20513658 170.46382077 88.26518997 144.40769958 86.14044189 C120.29495018 86.14044189 97.10159326 94.72831059 79.40769958 111.14044189 Z M2.40769958 372.14044189 C1.54144958 372.98606689 0.67519958 373.83169189 -0.21730042 374.70294189 C-3.15245592 377.71533833 -5.85513115 380.94707775 -8.59230042 384.14044189 C91.72769958 384.14044189 192.04769958 384.14044189 295.40769958 384.14044189 C291.76875088 379.89500173 288.35079059 376.01266034 284.40769958 372.14044189 C283.37902771 371.0247583 283.37902771 371.0247583 282.32957458 369.88653564 C250.16557107 335.69781968 199.51829551 322.77846568 154.18162537 321.01495361 C100.03455959 319.45082731 40.98687948 331.1616001 2.40769958 372.14044189 Z " fill="#150A33" transform="translate(112.59230041503906,41.85955810546875)"/>
</svg>
